<svg width="320" height="220" viewBox="0 0 320 220" fill="none" xmlns="http://www.w3.org/2000/svg">
  <rect x="24" y="20" width="272" height="180" rx="24" fill="#EEF2FF"/>
  <rect x="40" y="36" width="240" height="148" rx="18" fill="#FFFFFF" stroke="#C7D2FE" stroke-width="2"/>
  <circle cx="160" cy="104" r="36" fill="#FEE2E2"/>
  <circle cx="160" cy="104" r="26" fill="#EF4444"/>
  <rect x="154" y="88" width="12" height="32" rx="6" fill="white"/>
  <circle cx="160" cy="128" r="6" fill="white"/>
  <rect x="76" y="58" width="52" height="10" rx="5" fill="#E2E8F0"/>
  <rect x="76" y="76" width="90" height="10" rx="5" fill="#E2E8F0"/>
  <rect x="76" y="132" width="80" height="10" rx="5" fill="#E2E8F0"/>
  <rect x="76" y="150" width="64" height="10" rx="5" fill="#E2E8F0"/>
  <rect x="194" y="58" width="50" height="50" rx="12" fill="#E0E7FF"/>
  <path d="M208 71H230M208 82H230M208 93H222" stroke="#6366F1" stroke-width="4" stroke-linecap="round"/>
</svg>
