<svg width="20" height="20" viewBox="0 0 24 24" fill="none" xmlns="http://www.w3.org/2000/svg">
  <path d="M9 11C10.6569 11 12 9.65685 12 8C12 6.34315 10.6569 5 9 5C7.34315 5 6 6.34315 6 8C6 9.65685 7.34315 11 9 11Z" stroke="#6B7280" stroke-width="1.8" stroke-linecap="round" stroke-linejoin="round"/>
  <path d="M15.5 10C16.8807 10 18 8.88071 18 7.5C18 6.11929 16.8807 5 15.5 5C14.1193 5 13 6.11929 13 7.5C13 8.88071 14.1193 10 15.5 10Z" stroke="#6B7280" stroke-width="1.8" stroke-linecap="round" stroke-linejoin="round"/>
  <path d="M3 18C3 15.7909 4.79086 14 7 14H11C13.2091 14 15 15.7909 15 18" stroke="#6B7280" stroke-width="1.8" stroke-linecap="round" stroke-linejoin="round"/>
  <path d="M14 14.5C15.5671 14.5 17.0675 15.1225 18.1751 16.2302C19.2827 17.3378 19.9052 18.8382 19.9052 20.4052" stroke="#6B7280" stroke-width="1.8" stroke-linecap="round" stroke-linejoin="round"/>
</svg>
